PathFileType	3	(X/Y/Z)	D:\Jess\Healthy\Labelled\HA13\20250417\SRRun01.trc
DataRate	CameraRate	NumFrames	NumMarkers	Units	OrigDataRate	OrigDataStartFrame	OrigNumFrames
250.0	250.0	5	37	mm	250.0	36250	2501
Frame#	Time	C7			T10			CLAV			LSHO			RSHO			LASIS			RASIS			LPSIS			RPSIS			LILCR			RILCR			LGTR			LTHI			LLTHI			LLEP			LMEP			LPSH			LLSH			LDSH			LLMAL			LMMAL			LTOE			L5TH			LHEE			RGTR			RTHI			RLTHI			RLEP			RMEP			RPSH			RLSH			RDSH			RLMAL			RMMAL			RTOE			R5TH			RHEE			
		X1	Y1	Z1	X2	Y2	Z2	X3	Y3	Z3	X4	Y4	Z4	X5	Y5	Z5	X6	Y6	Z6	X7	Y7	Z7	X8	Y8	Z8	X9	Y9	Z9	X10	Y10	Z10	X11	Y11	Z11	X12	Y12	Z12	X13	Y13	Z13	X14	Y14	Z14	X15	Y15	Z15	X16	Y16	Z16	X17	Y17	Z17	X18	Y18	Z18	X19	Y19	Z19	X20	Y20	Z20	X21	Y21	Z21	X22	Y22	Z22	X23	Y23	Z23	X24	Y24	Z24	X25	Y25	Z25	X26	Y26	Z26	X27	Y27	Z27	X28	Y28	Z28	X29	Y29	Z29	X30	Y30	Z30	X31	Y31	Z31	X32	Y32	Z32	X33	Y33	Z33	X34	Y34	Z34	X35	Y35	Z35	X36	Y36	Z36	X37	Y37	Z37	

1251	144.996	905.0180518970066	1551.356760665238	-308.7007537759363	818.8895684536187	1296.930815317013	-307.8088428961246	1070.578886959032	1434.288374407694	-299.3740442931686	977.8810856256978	1523.852682618556	-464.3057914393575	959.7539500911046	1528.438730215061	-154.7369889056225	999.4757723125857	1014.198509404724	-409.829718181333	992.059019308084	1002.916438506627	-196.0222664790692	813.3890255086628	1048.517070018851	-316.839085914602	811.060613676167	1042.280797830595	-273.7679531429149	933.0454532813478	1077.232853967854	-467.4291294058985	938.250748972844	1064.268969720428	-140.1489731223765	955.7853171954613	850.7973683663043	-475.5870936418698	1044.636504947174	753.2703341151133	-414.3558671913905	950.7283972540425	650.1673324151233	-445.3452277160669	959.1885078392221	516.4781929489344	-422.1566721829909	nan	nan	nan	974.574041338656	394.1894895500308	-357.7981530478287	857.5996534695331	298.7670369224089	-407.3032238894821	859.7358820823972	193.6186484886284	-332.1587752686144	780.1799570683689	124.0938586508755	-356.0024433131806	nan	nan	nan	910.0514999905267	64.38701818727613	-338.1483830634767	869.2479907723516	42.5052639215921	-379.896501895295	692.1988143371107	90.56465644421775	-298.0837630325843	980.5377078774519	841.4716575632463	-130.7563568269716	1087.294133540878	763.231710921743	-226.4737093110576	1025.018199160119	643.3306678146206	-142.2154968120589	1065.638100736972	525.1153401711767	-162.8468467169304	nan	nan	nan	1024.818162956087	437.0928442510366	-207.6332075649502	892.3203905993407	477.6546190692436	-149.3124912697509	777.1422928582463	377.1817982968732	-206.8437094790269	684.9175709788967	400.0642987307138	-176.6760209536521	nan	nan	nan	683.7136617960582	238.7970394626485	-173.2433195506628	639.0267412726209	279.5367320326725	-143.3326985932669	622.067196642155	447.2322157981401	-231.044831805805	
1252	145	905.1755085872768	1552.673876349326	-308.8750262734338	818.8288400187931	1298.399652443832	-308.6465523183271	1070.339926186862	1435.498059478556	-298.4133495124701	979.4072639174485	1525.489725151718	-463.848847598866	958.8273554208473	1529.815124538109	-154.6344839179561	999.1794902264882	1015.286391899679	-409.8775967366489	991.496332642281	1005.208247706915	-195.8124318112371	813.016839611931	1049.824727784884	-317.2644751178761	810.5428538134439	1043.90439063641	-274.1936079024708	932.4916438605767	1078.64391742617	-467.6154725330869	936.7732050355021	1066.613163462012	-140.1380614531955	953.907568045086	850.84662343302	-475.0870310270238	1040.583301490253	751.873016629826	-413.6212839225793	944.9542603313299	650.4218552783743	-445.1591567045092	950.6227208389331	516.347717315102	-422.1740441776685	nan	nan	nan	964.7510384045117	393.6863775067105	-357.8915122204201	847.0616148211577	299.3725407147674	-407.2067626753823	848.3160563097474	194.166479675549	-332.2608585772312	768.1851351174814	125.2228210678053	-356.1023366888525	nan	nan	nan	897.7175265965761	64.28494772074154	-338.2230910182879	856.738203566711	42.54701155092992	-379.8743290394551	680.1302764436917	91.96303107223719	-298.0001384249438	980.9322738715075	844.7834442802043	-130.2046817319737	1088.661493053536	768.6640392260683	-227.7062894734536	1030.30450264981	647.7234729863679	-141.8585471141682	1072.533230746766	529.6974825478717	-163.1859367127533	nan	nan	nan	1033.58895318149	440.6340852547814	-207.7132888384007	900.1981515127675	478.3326217820854	-149.6586319178994	787.2944993066766	374.561214622655	-206.6785688495626	694.5675123448831	395.0038551476661	-176.4176802898011	nan	nan	nan	698.1403344001134	233.8079022812841	-172.9810377065596	652.3161695529234	273.1712073978802	-142.9674084080401	630.1572082212633	440.3767030457554	-230.6272042604143	
1253	145.004	905.3491947619319	1554.16775684498	-309.0638269834877	818.847250064587	1299.998222709581	-309.5324153880155	1070.118124838693	1436.883762319544	-297.4027300760341	980.9644643450232	1527.338376149134	-463.3509762551493	957.8756762881674	1531.395949968725	-154.5466767475922	999.0055621730409	1016.468111205266	-409.8908701989091	991.003509636095	1007.694401421726	-195.6040323512512	812.7394740970286	1051.248649329621	-317.7881785134886	810.1094612305637	1045.65361261501	-274.709332097261	932.1779200101555	1080.101475259471	-467.8138532307809	935.3384083520044	1069.079734635864	-140.1330638266223	952.0531500234565	850.9581531028072	-474.5601344105473	1036.415775474166	750.3709408617656	-413.0210951325287	938.9394566109835	650.8455583828433	-444.9164522354721	941.8389098228409	516.4358934261249	-422.1634608745014	nan	nan	nan	954.8010381034671	393.4452977971399	-357.9199549590988	836.4066786859354	300.2334205024046	-407.0604143830118	836.9023546820715	194.9246818959364	-332.3010089858195	756.2304876735604	126.5345288795397	-356.1374387619732	nan	nan	nan	885.396731726085	64.18918958987213	-338.2565323362927	844.2146961970232	42.64098221546872	-379.8080680917027	668.1282660981569	93.60482309937693	-297.8725686820314	981.3609829466417	848.323577244959	-129.6443666824168	1089.927457499974	774.2177464521568	-228.8034404409991	1035.438607623567	652.3459784852361	-141.5125489857564	1079.113516985707	534.4773682840639	-163.5360396062722	nan	nan	nan	1042.163004617371	444.3334252886841	-207.7952976827317	907.8753746937715	478.9615122228838	-150.0605975926199	797.4857600971181	371.798270424838	-206.5645616687125	704.294191799997	389.6717533889847	-176.2283023872846	nan	nan	nan	712.8044438832403	228.6911830660498	-172.7621890095416	665.8300812605605	266.6059307353196	-142.6701320215771	638.365032953485	433.1191095034361	-230.3147468187896	
1254	145.008	905.5401935078645	1555.831096741449	-309.2671141689103	818.9445512347044	1301.719588678624	-310.4637392132435	1069.915438406354	1438.436371438592	-296.3445430261862	982.5405972283035	1529.378054402976	-462.8190668024378	956.8968597523683	1533.164291757186	-154.4726456153329	998.9473080462745	1017.720416075054	-409.8698286298153	990.5818926048084	1010.345543212493	-195.4086246111491	812.5556975104864	1052.791533329094	-318.4044754754835	809.76159408106	1047.526314232892	-275.3068068497594	932.1182849562632	1081.586890179757	-468.018012897526	933.9625300068196	1071.63741008081	-140.1357329605841	950.2062544771802	851.140730384001	-474.0113137726955	1032.141455330226	748.8076303381458	-412.5359060268666	932.7132480880847	651.4529968529426	-444.6185983849517	932.8857545832444	516.7680417502672	-422.1220061713337	nan	nan	nan	944.7599769150521	393.4913707394118	-357.8836414811598	825.6642218355822	301.3762271148441	-406.8681730888796	825.5259190303225	195.9126656647215	-332.2879236841746	744.3417529825184	128.0479403542895	-356.1147856485687	nan	nan	nan	873.1010892481589	64.0955192592004	-338.2529993157499	831.6855972614426	42.78790765310858	-379.7004248490688	656.2182744653566	95.52079772031247	-297.7078366330879	981.8402324710793	852.0753067223774	-129.0843900628026	1091.110247213539	779.8555980407157	-229.7462826985942	1040.397734331021	657.1598334099577	-141.1836051590454	1085.361411647747	539.416687941189	-163.8936046256488	nan	nan	nan	1050.521086845249	448.1641395539875	-207.8811397009432	915.3485304179362	479.5180737092832	-150.5113872278195	807.7157532164733	368.8992753998215	-206.5044517344162	714.1089499493311	384.0835726312265	-176.1111911102214	nan	nan	nan	727.696276943804	223.4778112291215	-172.5823122892114	679.5688661120256	259.875185225726	-142.4367407436719	646.7133969667905	425.4770271997401	-230.1135609427724	
1255	145.012	905.7491911346557	1557.655453383104	-309.4834298833184	819.1193127225049	1303.556993273882	-311.4370815065378	1069.732832177428	1440.148028577311	-295.2427312908383	984.12337503345	1531.588423123643	-462.2597848819055	955.8906872185687	1535.102962690606	-154.4114748920852	998.9973630294442	1019.023747200146	-409.8147976661507	990.2326231687215	1013.135004328537	-195.2363673754667	812.4635821385411	1054.456878484208	-319.1053804948091	809.4999306650051	1049.521881295179	-275.9757621334679	932.3242142964494	1083.087331119165	-468.2200206345229	932.6615254172307	1074.263547264239	-140.1483457944029	948.3556639567552	851.4059516801957	-473.4456029438496	1027.775220876643	747.238113093933	-412.1374316804257	926.3159053966067	652.2587577286836	-444.2715342732156	923.816371896366	517.3682127010735	-422.0510798930488	nan	nan	nan	934.666104566995	393.8466493311076	-357.7894165566821	814.8680998139712	302.8228367147773	-406.6382013499624	814.2202603736558	197.1475427979038	-332.2354870511202	732.5470319229125	129.7792485592811	-356.0455235352312	nan	nan	nan	860.8436119610938	63.99898434713489	-338.2190411591926	819.1603981957621	42.9867931887225	-379.5560572720865	644.4287539881162	97.7391179481145	-297.5149254655433	982.384093966581	856.0230871917181	-128.533587433348	1092.227963696149	785.5441904133305	-230.5237313266968	1045.162007762147	662.1266015880443	-140.8771159993127	1091.262072771871	544.4759806621713	-164.2548519581729	nan	nan	nan	1058.646032282512	452.0988887613216	-207.9726003617554	922.616729924064	479.9793408063671	-151.0036530493036	817.9853682631631	365.8703395160369	-206.5003214048674	724.0234847440724	378.2546905351065	-176.0691808756156	nan	nan	nan	742.8063364780842	218.1971587951526	-172.4377870183393	693.5326419204613	253.0114899616386	-142.2637069268521	655.2247280995479	417.4690619625077	-230.0283414450531	
